PathFileType	4	(X/Y/Z)	data/andrienko/jump_jo 3.trc
DataRate	CameraRate	NumFrames	NumMarkers	Units	OrigDataRate	OrigDataStartFrame	OrigNumFrames
400	400	5	71	mm	400	172	456
Frame#	Time	r_asis			l_asis			r_psis			sacrum			l_psis			r_illiac			r_troch			l_illiac			l_troch			r_thigh1			r_thigh2			r_thigh3			r_thigh4			rl_knee			rm_knee			r_shank1			r_shank2			r_shank3			r_shank4			r_heel			rl_ankle			rm_ankle			r_metatarsal5			r_metatarsal1			l_thigh1			l_thigh2			l_thigh3			l_thigh4			ll_knee			lm_knee			l_shank1			l_shank2			l_shank3			l_shank4			l_heel			ll_ankle			lm_ankle			l_metatarsal5			l_metatarsal1			back_down			neck			back_right			back_left			head_up			head_front			head_left			head_right			r_shoulder			r_humerus1			r_humerus2			r_humerus3			rl_elbow			rm_elbow			r_radius1			r_radius2			r_radius3			rl_wrist			rm_wrist			r_hand			l_shoulder			l_humerus1			l_humerus2			l_humerus3			ll_elbow			lm_elbow			l_radius1			l_radius2			l_radius3			ll_wrist			lm_wrist			l_hand		
		X1	Y1	Z1	X2	Y2	Z2	X3	Y3	Z3	X4	Y4	Z4	X5	Y5	Z5	X6	Y6	Z6	X7	Y7	Z7	X8	Y8	Z8	X9	Y9	Z9	X10	Y10	Z10	X11	Y11	Z11	X12	Y12	Z12	X13	Y13	Z13	X14	Y14	Z14	X15	Y15	Z15	X16	Y16	Z16	X17	Y17	Z17	X18	Y18	Z18	X19	Y19	Z19	X20	Y20	Z20	X21	Y21	Z21	X22	Y22	Z22	X23	Y23	Z23	X24	Y24	Z24	X25	Y25	Z25	X26	Y26	Z26	X27	Y27	Z27	X28	Y28	Z28	X29	Y29	Z29	X30	Y30	Z30	X31	Y31	Z31	X32	Y32	Z32	X33	Y33	Z33	X34	Y34	Z34	X35	Y35	Z35	X36	Y36	Z36	X37	Y37	Z37	X38	Y38	Z38	X39	Y39	Z39	X40	Y40	Z40	X41	Y41	Z41	X42	Y42	Z42	X43	Y43	Z43	X44	Y44	Z44	X45	Y45	Z45	X46	Y46	Z46	X47	Y47	Z47	X48	Y48	Z48	X49	Y49	Z49	X50	Y50	Z50	X51	Y51	Z51	X52	Y52	Z52	X53	Y53	Z53	X54	Y54	Z54	X55	Y55	Z55	X56	Y56	Z56	X57	Y57	Z57	X58	Y58	Z58	X59	Y59	Z59	X60	Y60	Z60	X61	Y61	Z61	X62	Y62	Z62	X63	Y63	Z63	X64	Y64	Z64	X65	Y65	Z65	X66	Y66	Z66	X67	Y67	Z67	X68	Y68	Z68	X69	Y69	Z69	X70	Y70	Z70	X71	Y71	Z71
172	0.4275	-474.993	613.166	491.677	-482.042	615.420	278.038	-606.689	750.407	473.300	-585.611	785.796	387.045	-610.920	757.301	314.761	-482.350	697.682	551.011	-488.136	574.461	593.674	-491.573	693.193	221.035	-500.860	578.094	174.522	-434.200	532.370	580.705	-396.937	599.063	567.373	-292.019	528.011	573.344	-324.082	477.482	581.387	-207.554	417.495	567.303	-193.115	400.274	423.749	-291.023	327.267	581.987	-226.086	284.464	572.598	-289.087	198.439	564.764	-341.762	234.401	578.515	-492.230	75.904	513.909	-422.390	90.489	566.143	-396.688	81.396	464.794	-288.508	35.338	583.694	-268.750	36.101	488.052	-437.895	490.438	188.591	-408.190	560.060	174.225	-295.674	510.204	165.798	-320.286	449.302	178.519	-209.446	431.501	163.627	-196.080	406.273	308.907	-321.652	333.864	162.570	-261.120	295.942	158.798	-316.342	208.000	172.797	-369.758	233.985	175.570	-500.201	64.169	238.752	-425.778	87.017	187.655	-407.480	94.321	286.908	-286.032	30.590	168.142	-263.085	38.654	257.330	-519.721	855.618	384.002	-208.364	1016.929	381.209	-329.258	989.726	488.886	-331.425	989.581	284.126	-58.191	1178.035	383.240	51.591	1076.529	381.122	-45.059	1071.358	284.504	-57.959	1079.774	473.501	-139.827	940.624	543.192	-244.761	820.841	645.541	-246.633	944.832	685.980	-308.617	867.506	709.435	-399.454	860.330	770.274	-438.617	921.469	704.030	-408.016	759.039	682.033	-486.903	781.622	773.143	-493.480	711.225	698.331	-564.462	719.027	615.868	-541.008	661.593	685.187	-509.614	673.169	622.479	-147.697	948.619	221.990	-242.314	805.611	114.130	-251.252	925.855	60.927	-299.902	841.060	37.694	-361.152	813.144	-5.554	-431.229	885.929	34.933	-437.185	790.321	129.019	-416.716	710.537	27.096	-478.877	699.415	105.903	-510.314	650.367	103.406	-548.176	720.600	142.093	-509.494	686.481	158.694
173	0.4300	-475.634	610.426	491.665	-482.476	612.737	278.030	-606.984	747.965	473.273	-585.676	783.418	386.992	-610.913	754.859	314.543	-482.185	695.558	551.143	-488.094	572.333	593.762	-491.269	690.392	220.924	-500.686	575.932	174.611	-434.157	530.819	580.872	-397.094	597.439	567.391	-292.026	527.204	573.428	-323.856	476.478	581.539	-207.113	417.003	567.490	-192.464	399.864	423.865	-290.456	326.943	582.105	-225.581	284.130	572.748	-289.157	198.206	564.729	-341.339	234.266	578.624	-492.165	75.916	513.877	-422.303	90.425	566.128	-396.584	81.384	464.780	-288.496	35.301	583.716	-268.712	36.093	488.073	-437.509	488.488	188.819	-408.189	558.367	174.464	-295.401	508.970	166.067	-319.687	448.015	178.863	-208.823	430.983	164.002	-195.456	405.891	309.303	-320.968	333.447	162.718	-260.432	295.467	159.164	-315.829	207.703	173.095	-369.209	233.684	175.875	-500.199	64.165	238.909	-425.611	87.051	187.829	-407.351	94.178	287.085	-285.984	30.584	168.181	-263.019	38.588	257.363	-519.457	853.108	383.913	-207.769	1013.222	381.278	-328.585	986.321	488.750	-330.572	986.171	284.020	-57.968	1174.456	383.420	51.969	1072.946	381.403	-44.559	1067.494	284.654	-57.654	1076.137	473.645	-139.323	936.960	543.395	-244.446	817.586	645.764	-246.197	941.639	686.068	-308.358	864.609	709.511	-399.242	857.648	770.228	-438.634	918.639	703.718	-408.031	756.304	682.082	-486.916	779.182	773.161	-493.452	708.665	698.352	-564.709	716.760	615.955	-541.083	659.129	685.247	-509.821	670.899	622.420	-146.824	944.693	222.240	-242.018	802.038	114.253	-250.341	922.394	61.011	-298.948	837.931	37.738	-360.592	810.040	-5.602	-430.423	883.025	34.922	-436.888	787.771	129.004	-416.529	707.674	27.192	-479.814	697.122	105.450	-510.175	647.945	103.474	-548.042	718.162	141.979	-509.453	684.206	158.770
174	0.4325	-476.206	607.789	491.702	-482.828	610.092	278.073	-607.251	745.635	473.209	-585.680	781.104	386.880	-611.045	752.318	314.471	-481.863	693.320	551.197	-487.875	570.508	593.897	-490.967	687.797	220.811	-500.531	573.744	174.682	-434.311	528.874	580.873	-397.245	595.871	567.427	-291.999	526.413	573.515	-323.613	475.488	581.659	-206.606	416.538	567.716	-191.779	399.521	423.978	-289.930	326.628	582.268	-225.209	283.800	572.909	-288.904	198.020	564.804	-340.869	234.117	578.723	-492.116	75.938	513.831	-422.227	90.403	566.122	-396.500	81.356	464.744	-288.484	35.247	583.759	-268.722	36.058	488.108	-437.103	486.875	189.037	-408.163	556.652	174.677	-295.015	507.835	166.308	-319.165	446.797	179.290	-208.201	430.387	164.351	-194.865	405.471	309.775	-320.230	333.130	162.948	-259.793	295.089	159.456	-315.284	207.445	173.390	-368.704	233.393	176.166	-500.189	64.131	239.094	-425.456	87.101	187.992	-407.217	94.091	287.272	-285.920	30.574	168.222	-262.932	38.484	257.391	-519.192	850.658	383.835	-207.141	1009.671	381.351	-327.928	982.995	488.637	-329.752	982.876	283.916	-57.773	1170.788	383.552	52.356	1069.411	381.713	-44.048	1063.770	284.826	-57.502	1072.428	473.637	-138.756	933.271	543.558	-244.256	814.486	646.070	-245.720	938.438	686.088	-308.043	861.570	709.554	-399.055	855.094	770.214	-438.310	916.036	703.472	-408.016	753.561	682.100	-486.929	776.759	773.135	-493.295	706.097	698.328	-564.818	714.264	616.018	-541.227	656.752	685.176	-509.869	668.552	622.403	-146.031	940.844	222.467	-242.666	798.574	114.576	-249.426	919.003	61.018	-301.094	834.663	37.126	-360.054	807.121	-5.603	-429.709	880.272	34.831	-436.545	785.093	128.920	-415.639	704.896	26.946	-479.757	694.537	105.502	-510.165	645.502	103.547	-547.923	715.935	141.801	-509.459	681.863	158.853
175	0.4350	-476.718	605.241	491.776	-483.109	607.494	278.147	-607.470	743.291	473.100	-585.687	778.792	386.790	-611.046	750.025	314.297	-481.624	691.310	551.917	-487.750	568.613	594.041	-490.788	685.207	220.773	-500.383	571.603	174.756	-434.125	527.678	581.037	-397.673	594.324	567.413	-292.002	525.686	573.607	-323.141	474.519	581.815	-206.149	416.043	567.904	-191.238	399.052	424.064	-289.312	326.121	582.434	-224.721	283.223	572.943	-288.637	197.807	564.820	-340.524	233.867	578.761	-492.064	75.945	513.806	-422.142	90.366	566.114	-396.472	81.343	464.730	-288.507	35.219	583.791	-268.670	36.014	488.124	-436.694	484.883	189.356	-408.026	554.983	174.820	-294.723	506.728	166.601	-318.553	445.317	179.655	-207.519	429.856	164.645	-194.391	404.964	310.169	-319.554	332.867	163.335	-259.192	294.721	159.782	-314.802	207.104	173.652	-368.192	233.286	176.326	-500.172	64.118	239.271	-425.285	87.121	188.189	-407.061	93.952	287.476	-285.886	30.577	168.246	-262.880	38.412	257.436	-518.923	848.259	383.703	-206.541	1006.108	381.445	-327.268	979.667	488.588	-328.954	979.582	283.809	-57.376	1167.118	383.512	52.734	1065.915	382.040	-43.625	1060.207	285.024	-57.310	1068.974	473.792	-138.193	929.675	543.741	-243.967	811.186	646.346	-245.227	935.349	686.127	-307.849	858.638	709.630	-398.976	852.516	770.206	-437.949	913.427	703.269	-408.408	751.313	681.902	-486.900	774.484	773.144	-493.189	703.664	698.439	-565.022	712.166	616.094	-541.332	654.470	685.211	-510.058	666.398	622.317	-145.314	937.089	222.710	-242.282	795.103	114.618	-248.485	915.696	61.101	-297.717	831.597	37.736	-359.473	804.082	-5.601	-428.973	877.477	34.724	-436.166	782.503	128.845	-415.171	702.053	26.912	-479.488	692.045	105.523	-510.144	643.096	103.602	-547.855	713.611	141.627	-509.461	679.667	158.880
176	0.4375	-477.193	602.758	491.864	-483.312	604.947	278.262	-607.692	741.004	473.033	-585.687	776.507	386.687	-611.121	747.632	314.295	-481.551	688.929	552.116	-487.624	566.743	594.200	-490.594	682.747	220.683	-500.242	569.367	174.847	-433.949	526.059	581.189	-401.417	592.332	565.914	-291.876	524.751	573.638	-322.808	473.410	581.934	-205.611	415.541	568.094	-190.474	398.740	424.208	-288.834	325.910	582.652	-224.292	282.677	572.994	-288.351	197.351	564.854	-340.150	233.735	578.870	-492.010	75.968	513.769	-422.045	90.330	566.097	-396.387	81.279	464.696	-288.485	35.184	583.818	-268.666	35.986	488.161	-436.330	483.224	189.555	-408.008	553.335	175.019	-294.438	505.653	166.840	-317.861	444.292	179.853	-206.859	429.341	164.946	-193.921	404.501	310.539	-318.864	332.576	163.479	-258.558	294.415	160.128	-314.344	206.859	173.889	-367.679	233.149	176.535	-500.105	64.159	239.428	-425.154	87.138	188.337	-406.904	93.827	287.680	-285.837	30.570	168.288	-262.769	38.338	257.470	-518.655	845.877	383.580	-205.942	1002.613	381.560	-326.677	976.406	488.538	-328.140	976.377	283.682	-57.092	1163.540	383.594	53.064	1062.531	382.327	-43.167	1056.604	285.228	-57.074	1065.558	473.977	-137.653	926.045	543.922	-243.719	807.923	646.581	-244.719	932.320	686.118	-308.091	855.934	709.473	-398.701	850.088	770.275	-437.434	910.979	703.002	-408.249	748.669	682.033	-486.919	772.213	773.129	-493.313	701.368	698.452	-565.099	709.728	616.106	-541.495	652.297	685.161	-510.207	664.030	622.267	-144.515	933.415	222.956	-241.835	791.805	114.694	-247.712	912.382	61.216	-297.276	828.348	37.699	-358.880	801.154	-5.603	-428.193	874.720	34.576	-435.735	779.864	128.722	-415.007	699.232	26.919	-479.321	689.537	105.499	-510.561	640.326	103.920	-548.202	712.082	141.643	-509.448	677.349	158.874
